<mxfile host="app.diagrams.net" modified="2024-04-09T19:19:13.444Z" agent="Mozilla/5.0 (Macintosh; Intel Mac OS X 10_15_7) AppleWebKit/605.1.15 (KHTML, like Gecko) Version/15.6.1 Safari/605.1.15" version="24.1.0" etag="4QNsjRBd23B0jiTibgZb" type="github">
  <diagram name="Page-1" id="S3mtWs2vCi4CpHn6n-Wb">
    <mxGraphModel>
      <root>
        <mxCell id="0" />
        <mxCell id="1" parent="0" />
      </root>
    </mxGraphModel>
  </diagram>
</mxfile>
